# Blender v2.80 (sub 75) OBJ File: ''
# www.blender.org
o Cylinder_Cylinder.001
v 0.000000 -0.820735 -0.587197
v 0.000000 -0.581342 -0.725042
v 0.345146 -0.820735 -0.475052
v 0.426169 -0.581342 -0.586571
v 0.558458 -0.820735 -0.181454
v 0.689556 -0.581342 -0.224050
v 0.558458 -0.820735 0.181454
v 0.689556 -0.581342 0.224050
v 0.345146 -0.820735 0.475053
v 0.426169 -0.581342 0.586571
v -0.000000 -0.820735 0.587197
v -0.000000 -0.581342 0.725042
v -0.345146 -0.820735 0.475052
v -0.426169 -0.581342 0.586571
v -0.558458 -0.820735 0.181454
v -0.689556 -0.581342 0.224050
v -0.558458 -0.820735 -0.181454
v -0.689556 -0.581342 -0.224050
v -0.345146 -0.820735 -0.475053
v -0.426169 -0.581342 -0.586571
v 0.495729 0.142469 -0.682313
v 0.000000 0.142469 -0.843385
v 0.802107 0.142469 -0.260620
v 0.802107 0.142469 0.260620
v 0.495729 0.142469 0.682313
v -0.000000 0.142469 0.843385
v -0.495729 0.142469 0.682313
v -0.802107 0.142469 0.260620
v -0.802107 0.142469 -0.260620
v -0.495729 0.142469 -0.682313
v 0.404866 0.819722 -0.557250
v 0.000000 0.819722 -0.688799
v 0.655087 0.819722 -0.212851
v 0.655087 0.819722 0.212851
v 0.404866 0.819722 0.557250
v -0.000000 0.819722 0.688799
v -0.404866 0.819722 0.557250
v -0.655087 0.819722 0.212851
v -0.655087 0.819722 -0.212851
v -0.404866 0.819722 -0.557250
v 0.336123 1.006172 -0.462634
v 0.000000 1.006172 -0.571847
v 0.543858 1.006172 -0.176710
v 0.543858 1.006172 0.176710
v 0.336123 1.006172 0.462634
v -0.000000 1.006172 0.571847
v -0.336123 1.006172 0.462634
v -0.543858 1.006172 0.176710
v -0.543858 1.006172 -0.176710
v -0.336123 1.006172 -0.462634
vt 0.891068 0.444164
vt 0.978254 0.175836
vt 0.521746 0.175836
vt 0.108932 0.055836
vt 0.391068 0.055836
vt 0.478254 0.324164
vt 0.608932 0.444164
vt 0.750000 0.490000
vt 0.978254 0.324164
vt 0.891068 0.055836
vt 0.750000 0.010000
vt 0.608932 0.055836
vt 0.521746 0.324164
vt 0.391068 0.444164
vt 0.021746 0.324164
vt 0.250000 0.490000
vt 0.108932 0.444164
vt 0.021746 0.175836
vt 0.250000 0.010000
vt 0.478254 0.175836
vt 1.000000 1.000000
vt 0.900000 0.500000
vt 1.000000 0.500000
vt 0.800000 1.000000
vt 0.800000 0.500000
vt 0.700000 1.000000
vt 0.700000 0.500000
vt 0.600000 0.500000
vt 0.500000 1.000000
vt 0.500000 0.500000
vt 0.400000 1.000000
vt 0.400000 0.500000
vt 0.300000 0.500000
vt 0.300000 1.000000
vt 0.200000 0.500000
vt 0.300000 1.000000
vt 0.200000 1.000000
vt 0.100000 0.500000
vt 0.100000 1.000000
vt -0.000000 0.500000
vt 0.200000 1.000000
vt 0.200000 1.000000
vt 0.400000 1.000000
vt 0.600000 1.000000
vt 0.500000 1.000000
vt 0.600000 1.000000
vt 0.900000 1.000000
vt 0.900000 1.000000
vt 0.700000 1.000000
vt 0.800000 1.000000
vt -0.000000 1.000000
vt 0.100000 1.000000
vt -0.000000 1.000000
vt 0.600000 1.000000
vt 0.500000 1.000000
vt 0.500000 1.000000
vt 0.800000 1.000000
vt 0.100000 1.000000
vt 0.400000 1.000000
vt 0.700000 1.000000
vt -0.000000 1.000000
vt 0.300000 1.000000
vt 1.000000 1.000000
vt 0.900000 1.000000
vt 0.900000 1.000000
vt 0.800000 1.000000
vt 0.200000 1.000000
vt 0.100000 1.000000
vt 0.400000 1.000000
vt 0.700000 1.000000
vt -0.000000 1.000000
vt 0.300000 1.000000
vt 0.600000 1.000000
vt 1.000000 1.000000
vt 1.000000 1.000000
vn 0.0000 -1.0000 -0.0000
vn 0.0000 1.0000 -0.0000
vn 0.0000 -0.3249 -0.9457
vn 0.3339 -0.8230 -0.4595
vn 0.0000 -0.8230 -0.5680
vn 0.8994 -0.3249 -0.2922
vn 0.5402 -0.8230 -0.1755
vn 0.8994 -0.3249 0.2922
vn 0.5402 -0.8230 0.1755
vn 0.3339 -0.8230 0.4595
vn 0.0000 -0.3249 0.9457
vn 0.0000 -0.8230 0.5680
vn -0.5559 -0.3249 0.7651
vn -0.3339 -0.8230 0.4595
vn -0.5402 -0.8230 0.1755
vn -0.8994 -0.3249 0.2922
vn -0.5402 -0.8230 -0.1755
vn -0.9506 0.0300 0.3088
vn -0.8994 -0.3249 -0.2922
vn -0.3339 -0.8230 -0.4595
vn -0.5559 -0.3249 -0.7651
vn -0.8831 0.3711 -0.2869
vn -0.9506 0.0300 -0.3088
vn -0.5875 0.0300 0.8086
vn 0.5559 -0.3249 0.7651
vn 0.0000 0.0300 0.9995
vn 0.5875 0.0300 0.8086
vn 0.5875 0.0300 -0.8086
vn 0.5559 -0.3249 -0.7651
vn 0.9506 0.0300 0.3088
vn 0.9506 0.0300 -0.3088
vn -0.5875 0.0300 -0.8086
vn 0.0000 0.0300 -0.9995
vn 0.5458 0.3711 0.7512
vn 0.0000 0.8343 0.5512
vn 0.0000 0.3711 0.9286
vn 0.8831 0.3711 -0.2869
vn -0.5458 0.3711 -0.7512
vn -0.5458 0.3711 0.7512
vn 0.8831 0.3711 0.2869
vn 0.0000 0.3711 -0.9286
vn -0.8831 0.3711 0.2869
vn 0.5458 0.3711 -0.7512
vn 0.3240 0.8343 -0.4459
vn 0.5242 0.8343 -0.1703
vn -0.5242 0.8343 -0.1703
vn -0.3240 0.8343 -0.4459
vn -0.3240 0.8343 0.4459
vn 0.5242 0.8343 0.1703
vn 0.0000 0.8343 -0.5512
vn -0.5242 0.8343 0.1703
vn 0.3240 0.8343 0.4459
s off
f 3/1/1 7/2/1 15/3/1
f 47/4/2 45/5/2 43/6/2
f 19/7/1 1/8/1 3/1/1
f 3/1/1 5/9/1 7/2/1
f 7/2/1 9/10/1 11/11/1
f 11/11/1 13/12/1 7/2/1
f 13/12/1 15/3/1 7/2/1
f 15/3/1 17/13/1 19/7/1
f 19/7/1 3/1/1 15/3/1
f 43/6/2 41/14/2 49/15/2
f 41/14/2 42/16/2 49/15/2
f 42/16/2 50/17/2 49/15/2
f 49/15/2 48/18/2 47/4/2
f 47/4/2 46/19/2 45/5/2
f 45/5/2 44/20/2 43/6/2
f 49/15/2 47/4/2 43/6/2
s 1
f 2/21/3 3/22/4 1/23/5
f 3/22/4 6/24/6 5/25/7
f 5/25/7 8/26/8 7/27/9
f 8/26/8 9/28/10 7/27/9
f 9/28/10 12/29/11 11/30/12
f 11/30/12 14/31/13 13/32/14
f 14/31/13 15/33/15 13/32/14
f 16/34/16 17/35/17 15/33/15
f 14/31/13 28/36/18 16/34/16
f 18/37/19 19/38/20 17/35/17
f 20/39/21 1/40/5 19/38/20
f 28/36/18 39/41/22 29/42/23
f 12/29/11 27/43/24 14/31/13
f 10/44/25 26/45/26 12/29/11
f 8/26/8 25/46/27 10/44/25
f 2/21/3 21/47/28 4/48/29
f 6/24/6 24/49/30 8/26/8
f 6/24/6 21/47/28 23/50/31
f 2/51/3 30/52/32 22/53/33
f 18/37/19 30/52/32 20/39/21
f 18/37/19 28/36/18 29/42/23
f 35/54/34 46/55/35 36/56/36
f 25/46/27 36/56/36 26/45/26
f 21/47/28 33/57/37 23/50/31
f 30/52/32 39/41/22 40/58/38
f 26/45/26 37/59/39 27/43/24
f 23/50/31 34/60/40 24/49/30
f 30/52/32 32/61/41 22/53/33
f 28/36/18 37/59/39 38/62/42
f 24/49/30 35/54/34 25/46/27
f 22/63/33 31/64/43 21/47/28
f 33/57/37 41/65/44 43/66/45
f 40/58/38 49/67/46 50/68/47
f 37/59/39 46/55/35 47/69/48
f 33/57/37 44/70/49 34/60/40
f 40/58/38 42/71/50 32/61/41
f 37/59/39 48/72/51 38/62/42
f 34/60/40 45/73/52 35/54/34
f 32/74/41 41/65/44 31/64/43
f 39/41/22 48/72/51 49/67/46
f 2/21/3 4/48/29 3/22/4
f 3/22/4 4/48/29 6/24/6
f 5/25/7 6/24/6 8/26/8
f 8/26/8 10/44/25 9/28/10
f 9/28/10 10/44/25 12/29/11
f 11/30/12 12/29/11 14/31/13
f 14/31/13 16/34/16 15/33/15
f 16/34/16 18/37/19 17/35/17
f 14/31/13 27/43/24 28/36/18
f 18/37/19 20/39/21 19/38/20
f 20/39/21 2/51/3 1/40/5
f 28/36/18 38/62/42 39/41/22
f 12/29/11 26/45/26 27/43/24
f 10/44/25 25/46/27 26/45/26
f 8/26/8 24/49/30 25/46/27
f 2/21/3 22/63/33 21/47/28
f 6/24/6 23/50/31 24/49/30
f 6/24/6 4/48/29 21/47/28
f 2/51/3 20/39/21 30/52/32
f 18/37/19 29/42/23 30/52/32
f 18/37/19 16/34/16 28/36/18
f 35/54/34 45/73/52 46/55/35
f 25/46/27 35/54/34 36/56/36
f 21/47/28 31/64/43 33/57/37
f 30/52/32 29/42/23 39/41/22
f 26/45/26 36/56/36 37/59/39
f 23/50/31 33/57/37 34/60/40
f 30/52/32 40/58/38 32/61/41
f 28/36/18 27/43/24 37/59/39
f 24/49/30 34/60/40 35/54/34
f 22/63/33 32/74/41 31/64/43
f 33/57/37 31/64/43 41/65/44
f 40/58/38 39/41/22 49/67/46
f 37/59/39 36/56/36 46/55/35
f 33/57/37 43/66/45 44/70/49
f 40/58/38 50/68/47 42/71/50
f 37/59/39 47/69/48 48/72/51
f 34/60/40 44/70/49 45/73/52
f 32/74/41 42/75/50 41/65/44
f 39/41/22 38/62/42 48/72/51
