# Blender v2.80 (sub 75) OBJ File: ''
# www.blender.org
o Grid
v -3.004907 0.000000 3.004907
v -2.337150 0.000000 3.004907
v -1.669393 0.000000 3.004907
v -1.001636 0.000000 3.004907
v -0.333879 0.000000 3.004907
v 0.333879 0.000000 3.004907
v 1.001636 0.000000 3.004907
v 1.669393 0.000000 3.004907
v 2.337150 0.000000 3.004907
v 3.004907 0.000000 3.004907
v -3.004907 0.000000 2.337150
v -2.337150 0.000000 2.337150
v -1.669393 0.000000 2.337150
v -1.001636 0.000000 2.337150
v -0.333879 0.000000 2.337150
v 0.294887 0.334164 2.238815
v 0.962644 0.334164 2.238815
v 1.660275 0.227028 2.235769
v 2.350852 0.594052 2.346518
v 3.004907 0.000000 2.337150
v -3.004907 0.000000 1.669393
v -2.337150 0.000000 1.669393
v -1.669393 0.000000 1.669393
v -1.001636 0.000000 1.669393
v -0.333879 0.000000 1.669393
v 0.294887 0.334164 1.571057
v 0.962644 0.334164 1.571057
v 1.660275 0.227028 1.568012
v 2.350852 0.594052 1.678761
v 3.004907 0.000000 1.669393
v -3.004907 0.000000 1.001636
v -2.337150 0.000000 1.001636
v -1.669393 0.000000 1.001636
v -1.001636 0.000000 1.001636
v -0.333879 0.000000 1.001636
v 0.333879 0.000000 1.001636
v 1.001636 0.000000 1.001636
v 1.669393 0.387415 1.001636
v 2.350852 0.594052 1.011003
v 3.004907 0.000000 1.001636
v -3.004907 0.000000 0.333879
v -2.337150 0.361053 0.333879
v -1.669393 0.000000 0.333879
v -1.001636 0.000000 0.333879
v -0.333879 0.000000 0.333879
v 0.333879 0.000000 0.333879
v 1.001636 0.000000 0.333879
v 1.669393 0.422459 0.333879
v 2.350852 0.594052 0.343246
v 3.004907 0.000000 0.333879
v -3.004907 0.000000 -0.333879
v -2.337150 0.361053 -0.333879
v -1.669393 0.000000 -0.333879
v -1.001636 0.000000 -0.333879
v -0.333879 0.000000 -0.333879
v 0.333879 0.000000 -0.333879
v 1.001636 0.000000 -0.333879
v 1.669393 0.000000 -0.333879
v 2.350852 0.594052 -0.324511
v 3.004907 0.000000 -0.333879
v -3.004907 0.000000 -1.001636
v -2.337150 0.361053 -1.001636
v -1.669393 0.000000 -1.001636
v -1.001636 0.000000 -1.001636
v -0.333879 0.000000 -1.001636
v 0.333879 0.000000 -1.001636
v 1.001636 0.000000 -1.001636
v 1.669393 0.000000 -1.001636
v 2.350852 0.594052 -0.992268
v 3.004907 0.000000 -1.001636
v -3.004907 0.000000 -1.669393
v -2.337150 0.468069 -1.669393
v -1.669393 0.000000 -1.669393
v -1.001636 0.000000 -1.669393
v -0.333879 0.000000 -1.669393
v 0.333879 0.000000 -1.669393
v 1.001636 0.000000 -1.669393
v 1.669393 0.000000 -1.669393
v 2.350852 0.594052 -1.660025
v 3.004907 0.000000 -1.669393
v -3.004907 0.000000 -2.337150
v -2.135618 0.428534 -2.289956
v -1.467861 0.428534 -2.289956
v -0.800104 0.428534 -2.289956
v -0.132347 0.428534 -2.289956
v 0.535411 0.428534 -2.289956
v 0.967728 0.107011 -2.265501
v 1.550858 0.527406 -2.418303
v 2.350852 0.594052 -2.327782
v 3.004907 0.000000 -2.337150
v -3.004907 0.000000 -3.004907
v -2.337150 0.000000 -3.004907
v -1.669393 0.000000 -3.004907
v -1.001636 0.000000 -3.004907
v -0.333879 0.000000 -3.004907
v 0.333879 0.000000 -3.004907
v 1.001636 0.000000 -3.004907
v 1.669393 0.000000 -3.004907
v 2.337150 0.000000 -3.004907
v 3.004907 0.000000 -3.004907
vt 0.111111 0.000000
vt 0.000000 0.111111
vt 0.000000 0.000000
vt 0.222222 0.000000
vt 0.111111 0.111111
vt 0.333333 0.000000
vt 0.222222 0.111111
vt 0.444444 0.000000
vt 0.333333 0.111111
vt 0.555556 0.000000
vt 0.444444 0.111111
vt 0.666667 0.111111
vt 0.555556 0.111111
vt 0.666667 0.000000
vt 0.777778 0.111111
vt 0.888889 0.000000
vt 0.777778 0.000000
vt 1.000000 0.111111
vt 0.888889 0.111111
vt 0.000000 0.222222
vt 0.111111 0.222222
vt 0.222222 0.222222
vt 0.333333 0.222222
vt 0.444444 0.222222
vt 0.555556 0.222222
vt 0.666667 0.222222
vt 0.888889 0.222222
vt 0.777778 0.222222
vt 0.000000 0.333333
vt 0.111111 0.333333
vt 0.222222 0.333333
vt 0.333333 0.333333
vt 0.444444 0.333333
vt 0.555556 0.333333
vt 0.666667 0.333333
vt 0.888889 0.333333
vt 0.777778 0.333333
vt 1.000000 0.222222
vt 0.000000 0.444444
vt 0.222222 0.444444
vt 0.111111 0.444444
vt 0.333333 0.444444
vt 0.444444 0.444444
vt 0.555556 0.444444
vt 0.666667 0.444444
vt 0.888889 0.444444
vt 0.777778 0.444444
vt 1.000000 0.333333
vt 0.000000 0.555556
vt 0.111111 0.555556
vt 0.222222 0.555556
vt 0.333333 0.555556
vt 0.444444 0.555556
vt 0.555556 0.555556
vt 0.777778 0.555556
vt 0.666667 0.555556
vt 0.888889 0.555556
vt 1.000000 0.444444
vt 0.000000 0.666667
vt 0.111111 0.666667
vt 0.222222 0.666667
vt 0.333333 0.666667
vt 0.444444 0.666667
vt 0.555556 0.666667
vt 0.666667 0.666667
vt 0.888889 0.666667
vt 0.777778 0.666667
vt 1.000000 0.555556
vt 0.000000 0.777778
vt 0.222222 0.777778
vt 0.111111 0.777778
vt 0.333333 0.777778
vt 0.444444 0.777778
vt 0.555556 0.777778
vt 0.666667 0.777778
vt 0.888889 0.777778
vt 0.777778 0.777778
vt 1.000000 0.666667
vt 0.000000 0.888889
vt 0.111111 0.888889
vt 0.222222 0.888889
vt 0.333333 0.888889
vt 0.444444 0.888889
vt 0.666667 0.888889
vt 0.555556 0.888889
vt 0.888889 0.888889
vt 0.777778 0.888889
vt 1.000000 0.777778
vt 0.111111 1.000000
vt 0.000000 1.000000
vt 0.222222 1.000000
vt 0.333333 1.000000
vt 0.444444 1.000000
vt 0.555556 1.000000
vt 0.666667 1.000000
vt 0.888889 1.000000
vt 0.777778 1.000000
vt 1.000000 0.888889
vt 1.000000 0.000000
vt 1.000000 1.000000
vn 0.0000 1.0000 0.0000
vn 0.0000 0.9166 0.3998
vn 0.1415 0.9100 0.3897
vn 0.0000 0.9591 0.2831
vn 0.5610 0.6088 0.5610
vn -0.4693 0.8830 0.0000
vn 0.1518 0.9884 0.0000
vn 0.6723 0.7402 0.0000
vn 0.0000 0.8625 -0.5061
vn 0.1298 0.8590 -0.4952
vn -0.2837 0.9238 0.2570
vn 0.4295 0.7944 0.4295
vn -0.5018 0.8650 0.0000
vn -0.2445 0.9683 0.0508
vn -0.4756 0.8796 0.0000
vn 0.4756 0.8796 0.0000
vn -0.5893 0.6828 -0.4320
vn -0.6571 0.7538 0.0000
vn 0.5691 0.8119 0.1301
vn -0.5740 0.8189 0.0000
vn 0.5689 0.8116 0.1330
vn 0.0000 0.8229 0.5682
vn 0.4546 0.6570 0.6014
vn 0.0000 0.9843 0.1767
vn -0.1328 0.8003 0.5846
vn 0.0000 0.8577 -0.5141
vn -0.6030 0.7851 -0.1413
vn 0.0000 0.7436 -0.6686
vn 0.5549 0.6197 -0.5549
vn -0.3853 0.8385 0.3853
vn -0.4500 0.6677 0.5931
vn -0.4883 0.8417 0.2305
vn -0.4295 0.7944 0.4295
vn -0.5341 0.8442 0.0443
vn -0.2902 0.9570 0.0000
vn -0.4715 0.7453 -0.4715
vn -0.2442 0.9697 0.0000
vn -0.5691 0.8119 0.1301
vn -0.4252 0.8840 -0.1944
vn -0.3754 0.7288 0.5727
vn -0.3900 0.8341 -0.3900
vn 0.5977 0.7969 -0.0879
vn 0.0120 0.7515 -0.6596
s off
f 2/1/1 11/2/1 1/3/1
f 3/4/1 12/5/1 2/1/1
f 4/6/1 13/7/1 3/4/1
f 5/8/1 14/9/1 4/6/1
f 6/10/1 15/11/1 5/8/1
f 6/10/2 17/12/2 16/13/2
f 7/14/3 18/15/3 17/12/3
f 9/16/4 18/15/4 8/17/4
f 9/16/5 20/18/5 19/19/5
f 12/5/1 21/20/1 11/2/1
f 13/7/1 22/21/1 12/5/1
f 14/9/1 23/22/1 13/7/1
f 15/11/1 24/23/1 14/9/1
f 16/13/6 25/24/6 15/11/6
f 17/12/1 26/25/1 16/13/1
f 18/15/7 27/26/7 17/12/7
f 18/15/6 29/27/6 28/28/6
f 20/18/8 29/27/8 19/19/8
f 22/21/1 31/29/1 21/20/1
f 23/22/1 32/30/1 22/21/1
f 24/23/1 33/31/1 23/22/1
f 25/24/1 34/32/1 24/23/1
f 26/25/6 35/33/6 25/24/6
f 27/26/9 36/34/9 26/25/9
f 28/28/10 37/35/10 27/26/10
f 28/28/11 39/36/11 38/37/11
f 30/38/8 39/36/8 29/27/8
f 32/30/1 41/39/1 31/29/1
f 32/30/12 43/40/12 42/41/12
f 34/32/1 43/40/1 33/31/1
f 35/33/1 44/42/1 34/32/1
f 36/34/1 45/43/1 35/33/1
f 37/35/1 46/44/1 36/34/1
f 38/37/13 47/45/13 37/35/13
f 38/37/14 49/46/14 48/47/14
f 40/48/8 49/46/8 39/36/8
f 42/41/15 51/49/15 41/39/15
f 43/40/16 52/50/16 42/41/16
f 44/42/1 53/51/1 43/40/1
f 45/43/1 54/52/1 44/42/1
f 46/44/1 55/53/1 45/43/1
f 47/45/1 56/54/1 46/44/1
f 47/45/1 58/55/1 57/56/1
f 48/47/17 59/57/17 58/55/17
f 50/58/8 59/57/8 49/46/8
f 52/50/15 61/59/15 51/49/15
f 53/51/16 62/60/16 52/50/16
f 54/52/1 63/61/1 53/51/1
f 55/53/1 64/62/1 54/52/1
f 56/54/1 65/63/1 55/53/1
f 57/56/1 66/64/1 56/54/1
f 58/55/1 67/65/1 57/56/1
f 58/55/18 69/66/18 68/67/18
f 60/68/8 69/66/8 59/57/8
f 62/60/15 71/69/15 61/59/15
f 62/60/19 73/70/19 72/71/19
f 64/62/1 73/70/1 63/61/1
f 65/63/1 74/72/1 64/62/1
f 66/64/1 75/73/1 65/63/1
f 67/65/1 76/74/1 66/64/1
f 68/67/1 77/75/1 67/65/1
f 68/67/18 79/76/18 78/77/18
f 70/78/8 79/76/8 69/66/8
f 72/71/20 81/79/20 71/69/20
f 73/70/21 82/80/21 72/71/21
f 74/72/22 83/81/22 73/70/22
f 75/73/22 84/82/22 74/72/22
f 76/74/22 85/83/22 75/73/22
f 76/74/23 87/84/23 86/85/23
f 78/77/24 87/84/24 77/75/24
f 78/77/25 89/86/25 88/87/25
f 80/88/8 89/86/8 79/76/8
f 81/79/1 92/89/1 91/90/1
f 82/80/26 93/91/26 92/89/26
f 83/81/26 94/92/26 93/91/26
f 84/82/26 95/93/26 94/92/26
f 85/83/26 96/94/26 95/93/26
f 86/85/26 97/95/26 96/94/26
f 88/87/27 97/95/27 87/84/27
f 88/87/28 99/96/28 98/97/28
f 90/98/29 99/96/29 89/86/29
f 2/1/1 12/5/1 11/2/1
f 3/4/1 13/7/1 12/5/1
f 4/6/1 14/9/1 13/7/1
f 5/8/1 15/11/1 14/9/1
f 6/10/30 16/13/30 15/11/30
f 6/10/2 7/14/2 17/12/2
f 7/14/4 8/17/4 18/15/4
f 9/16/31 19/19/31 18/15/31
f 9/16/1 10/99/1 20/18/1
f 12/5/1 22/21/1 21/20/1
f 13/7/1 23/22/1 22/21/1
f 14/9/1 24/23/1 23/22/1
f 15/11/1 25/24/1 24/23/1
f 16/13/6 26/25/6 25/24/6
f 17/12/1 27/26/1 26/25/1
f 18/15/7 28/28/7 27/26/7
f 18/15/6 19/19/6 29/27/6
f 20/18/8 30/38/8 29/27/8
f 22/21/1 32/30/1 31/29/1
f 23/22/1 33/31/1 32/30/1
f 24/23/1 34/32/1 33/31/1
f 25/24/1 35/33/1 34/32/1
f 26/25/9 36/34/9 35/33/9
f 27/26/9 37/35/9 36/34/9
f 28/28/32 38/37/32 37/35/32
f 28/28/6 29/27/6 39/36/6
f 30/38/8 40/48/8 39/36/8
f 32/30/33 42/41/33 41/39/33
f 32/30/1 33/31/1 43/40/1
f 34/32/1 44/42/1 43/40/1
f 35/33/1 45/43/1 44/42/1
f 36/34/1 46/44/1 45/43/1
f 37/35/1 47/45/1 46/44/1
f 38/37/34 48/47/34 47/45/34
f 38/37/35 39/36/35 49/46/35
f 40/48/8 50/58/8 49/46/8
f 42/41/15 52/50/15 51/49/15
f 43/40/16 53/51/16 52/50/16
f 44/42/1 54/52/1 53/51/1
f 45/43/1 55/53/1 54/52/1
f 46/44/1 56/54/1 55/53/1
f 47/45/1 57/56/1 56/54/1
f 47/45/36 48/47/36 58/55/36
f 48/47/37 49/46/37 59/57/37
f 50/58/8 60/68/8 59/57/8
f 52/50/15 62/60/15 61/59/15
f 53/51/16 63/61/16 62/60/16
f 54/52/1 64/62/1 63/61/1
f 55/53/1 65/63/1 64/62/1
f 56/54/1 66/64/1 65/63/1
f 57/56/1 67/65/1 66/64/1
f 58/55/1 68/67/1 67/65/1
f 58/55/18 59/57/18 69/66/18
f 60/68/8 70/78/8 69/66/8
f 62/60/38 72/71/38 71/69/38
f 62/60/16 63/61/16 73/70/16
f 64/62/1 74/72/1 73/70/1
f 65/63/1 75/73/1 74/72/1
f 66/64/1 76/74/1 75/73/1
f 67/65/1 77/75/1 76/74/1
f 68/67/1 78/77/1 77/75/1
f 68/67/18 69/66/18 79/76/18
f 70/78/8 80/88/8 79/76/8
f 72/71/39 82/80/39 81/79/39
f 73/70/22 83/81/22 82/80/22
f 74/72/22 84/82/22 83/81/22
f 75/73/22 85/83/22 84/82/22
f 76/74/22 86/85/22 85/83/22
f 76/74/24 77/75/24 87/84/24
f 78/77/40 88/87/40 87/84/40
f 78/77/18 79/76/18 89/86/18
f 80/88/8 90/98/8 89/86/8
f 81/79/41 82/80/41 92/89/41
f 82/80/26 83/81/26 93/91/26
f 83/81/26 84/82/26 94/92/26
f 84/82/26 85/83/26 95/93/26
f 85/83/26 86/85/26 96/94/26
f 86/85/42 87/84/42 97/95/42
f 88/87/28 98/97/28 97/95/28
f 88/87/43 89/86/43 99/96/43
f 90/98/1 100/100/1 99/96/1
